<?xml version="1.0" encoding="iso-8859-1"?><svg xmlns="http://www.w3.org/2000/svg" xmlns:xlink="http://www.w3.org/1999/xlink"><g viewBox="0 0 389.689 389.689" id="capitel" xmlns="http://www.w3.org/2000/svg"><path d="M313.535 21.657H76.154c-27.087 0-49.325 22.238-49.325 49.325s22.238 49.325 49.325 49.325h236.865c27.087 0 49.325-22.238 49.325-49.325s-21.722-49.325-48.809-49.325z" fill="#56ace0"/><g fill="#fff"><path d="M93.479 70.982c0-9.244-7.564-17.325-17.325-17.325-9.244 0-17.325 7.564-17.325 17.325s7.564 17.325 17.325 17.325 17.325-7.564 17.325-17.325zM313.535 54.174c-9.244 0-17.325 7.564-17.325 17.325s7.564 17.325 17.325 17.325c9.244 0 17.325-7.564 17.325-17.325s-8.08-17.325-17.325-17.325zM99.426 142.545h190.255v226.004H99.426z"/></g><path fill="#ffc10d" d="M121.147 164.202h146.877v182.626H121.147z"/><g fill="#194f82"><path d="M313.535 142.545c39.046 0 70.982-32 70.982-70.982S352.582 0 313.535 0H76.154C37.107 0 5.172 32 5.172 70.982s31.935 70.982 70.982 70.982h1.616v226.004H42.537c-5.947 0-10.861 4.849-10.861 10.861 0 6.012 4.913 10.861 10.861 10.861H346.57c5.947 0 10.861-4.849 10.861-10.861a10.843 10.843 0 00-10.861-10.861h-35.232V142.545h2.197zM26.828 70.982c0-27.087 22.238-49.325 49.325-49.325h236.865c27.087 0 49.325 22.238 49.325 49.325s-22.238 49.325-49.325 49.325H76.154c-27.087.517-49.326-21.656-49.326-49.325zm263.435 297.567H99.426V142.545h190.255V368.55l.582-.001z"/><path d="M76.154 32.517c-21.139 0-39.046 17.325-39.046 39.046s17.325 39.046 39.046 39.046c21.139 0 39.046-17.325 39.046-39.046S97.81 32.517 76.154 32.517zm0 55.79c-9.244 0-17.325-7.564-17.325-17.325s7.564-17.325 17.325-17.325c9.244 0 17.325 7.564 17.325 17.325s-7.564 17.325-17.325 17.325zM352 70.982c0-21.139-17.325-39.046-39.046-39.046s-39.046 17.325-39.046 39.046 17.325 39.046 39.046 39.046S352 92.703 352 70.982zm-55.79 0c0-9.244 7.564-17.325 17.325-17.325 9.244 0 17.325 7.564 17.325 17.325s-7.564 17.325-17.325 17.325-17.325-7.564-17.325-17.325zM160.711 337.648c5.947 0 10.861-4.849 10.861-10.861V184.242c0-5.947-4.848-10.861-10.861-10.861-5.947 0-10.861 4.848-10.861 10.861v142.545c0 5.948 4.914 10.861 10.861 10.861zM228.978 337.648c5.947 0 10.861-4.849 10.861-10.861V184.242c0-5.947-4.848-10.861-10.861-10.861-5.947 0-10.861 4.848-10.861 10.861v142.545c0 5.948 4.913 10.861 10.861 10.861zM160.711 37.366c-5.947 0-10.861 4.848-10.861 10.861V94.32c0 5.947 4.848 10.861 10.861 10.861 5.947 0 10.861-4.848 10.861-10.861V48.226c0-5.947-4.913-10.86-10.861-10.86zM228.978 37.366c-5.947 0-10.861 4.848-10.861 10.861V94.32c0 5.947 4.848 10.861 10.861 10.861 5.947 0 10.861-4.848 10.861-10.861V48.226c-.001-5.947-4.914-10.86-10.861-10.86z"/></g></g><g viewBox="0 0 512 512" id="letter" xmlns="http://www.w3.org/2000/svg"><path fill="#595e62" d="M7.918 7.918h496.165v496.165H7.918z"/><path fill="#63686c" d="M504.082 7.918H7.918v496.164h58.061L504.082 65.979z"/><path d="M512 512H0V0h512v512zM15.835 496.165h480.33V15.835H15.835v480.33z"/><path fill="#ffd311" d="M456.577 50.144v95.011H308.784v316.701H203.217V145.155H55.423V50.144z"/><path fill="#fabd1b" d="M55.423 50.144v95.011h147.794v316.701H256V50.144z"/><path d="M316.701 469.773H195.299V153.072H47.505V42.227h416.99v110.845H316.701v316.701zm-105.567-15.835h89.732V137.237H448.66V58.062H63.34v79.175h147.794v316.701z"/><g fill="#fff"><path d="M97.649 475.052H36.948V234.887h15.836v224.33h44.865zM118.763 459.217h21.113v15.835h-21.113zM100.289 113.485H84.454v-34.31h150.433V95.01H100.289zM250.722 79.175h26.392V95.01h-26.392z"/></g></g><g viewBox="0 0 512 512" id="monitor" xmlns="http://www.w3.org/2000/svg"><path d="M494.345 39.724H17.655C7.904 39.724 0 47.628 0 57.379v282.483h512V57.379c0-9.751-7.904-17.655-17.655-17.655zm-8.828 273.655H26.483V66.207h459.034v247.172z" fill="#464655"/><g fill="#fff"><path d="M203.033 176.552a4.411 4.411 0 014.414 4.414h13.241v-13.241h-17.655a4.411 4.411 0 01-4.414-4.414 4.411 4.411 0 014.414-4.414h17.655v-57.379H141.24v79.448h57.379a4.412 4.412 0 014.414-4.414z"/><path d="M26.483 313.379h459.034V66.207H26.483v247.172zm194.206-22.069h-17.655c-2.44 0-4.414-1.974-4.414-4.414s1.974-4.414 4.414-4.414h17.655c2.44 0 4.414 1.974 4.414 4.414s-1.975 4.414-4.414 4.414zm-17.656-44.138a4.411 4.411 0 014.414 4.414v17.655c0 2.44-1.974 4.414-4.414 4.414s-4.414-1.974-4.414-4.414v-17.655a4.412 4.412 0 014.414-4.414zm-4.413-13.241v-17.655c0-2.44 1.974-4.414 4.414-4.414s4.414 1.974 4.414 4.414v17.655c0 2.44-1.974 4.414-4.414 4.414s-4.414-1.974-4.414-4.414zm57.379 57.379h-17.655c-2.44 0-4.414-1.974-4.414-4.414s1.974-4.414 4.414-4.414h17.655c2.44 0 4.414 1.974 4.414 4.414s-1.974 4.414-4.414 4.414zm75.034-22.069c0 2.44-1.974 4.414-4.414 4.414s-4.414-1.974-4.414-4.414v-17.655c0-2.44 1.974-4.414 4.414-4.414s4.414 1.974 4.414 4.414v17.655zm0-35.31c0 2.44-1.974 4.414-4.414 4.414s-4.414-1.974-4.414-4.414v-17.655c0-2.44 1.974-4.414 4.414-4.414s4.414 1.974 4.414 4.414v17.655zm0-35.31c0 2.44-1.974 4.414-4.414 4.414s-4.414-1.974-4.414-4.414v-17.655c0-2.44 1.974-4.414 4.414-4.414s4.414 1.974 4.414 4.414v17.655zm39.726 8.827V92.69a8.829 8.829 0 018.828-8.828h79.448a8.829 8.829 0 018.828 8.828v194.207a8.829 8.829 0 01-8.828 8.828h-79.448a8.829 8.829 0 01-8.828-8.828v-79.449zm-61.795-48.551h17.655a4.411 4.411 0 014.414 4.414 4.411 4.411 0 01-4.414 4.414h-17.655a4.411 4.411 0 01-4.414-4.414 4.412 4.412 0 014.414-4.414zm0 123.586h17.655c2.44 0 4.414 1.974 4.414 4.414s-1.974 4.414-4.414 4.414h-17.655c-2.44 0-4.414-1.974-4.414-4.414s1.975-4.414 4.414-4.414zm-35.31-123.586h17.655a4.411 4.411 0 014.414 4.414 4.411 4.411 0 01-4.414 4.414h-17.655a4.411 4.411 0 01-4.414-4.414 4.411 4.411 0 014.414-4.414zm0 123.586h17.655c2.44 0 4.414 1.974 4.414 4.414s-1.974 4.414-4.414 4.414h-17.655c-2.44 0-4.414-1.974-4.414-4.414s1.974-4.414 4.414-4.414zM123.585 92.69a8.826 8.826 0 018.828-8.828h97.103a8.826 8.826 0 018.828 8.828v66.207h17.655a4.411 4.411 0 014.414 4.414 4.411 4.411 0 01-4.414 4.414h-17.655v22.069c0 .957-.157 1.877-.438 2.739l23.165 20.754c1.919 1.719 1.419 4.847-.94 5.884l-8.778 3.853 7.84 17.857a4.42 4.42 0 01-2.268 5.818 4.457 4.457 0 01-1.771.371 4.413 4.413 0 01-4.047-2.638l-7.841-17.859-8.781 3.854c-2.359 1.036-5.001-.714-4.967-3.29l.371-28.534c-.125.006-.247.019-.373.019h-22.069c0 2.44-1.974 4.414-4.414 4.414s-4.414-1.974-4.414-4.414h-66.207a8.826 8.826 0 01-8.828-8.828V92.69h.001zm-79.447 0a8.829 8.829 0 018.828-8.828h26.483a8.829 8.829 0 018.828 8.828v194.207a8.829 8.829 0 01-8.828 8.828H52.966a8.829 8.829 0 01-8.828-8.828V92.69z"/></g><path d="M0 375.172c0 9.751 7.904 17.655 17.655 17.655h476.689c9.751 0 17.655-7.904 17.655-17.655v-35.31H0v35.31zm256-22.069c7.313 0 13.241 5.929 13.241 13.241s-5.929 13.241-13.241 13.241c-7.313 0-13.241-5.929-13.241-13.241s5.928-13.241 13.241-13.241z" fill="#bec8dc"/><path fill="#afbbd0" d="M177.655 454.621h156.69l-5.517-44.138H183.172z"/><path d="M176.552 454.621a8.829 8.829 0 000 17.656h158.897a8.829 8.829 0 000-17.656H176.552z" fill="#bec8dc"/><g fill="#96a5b9"><path d="M183.172 410.483h145.656l-2.207-17.655H185.379z"/><circle cx="256" cy="366.345" r="13.241"/></g><path d="M52.966 295.724h26.483a8.829 8.829 0 008.828-8.828V92.69a8.829 8.829 0 00-8.828-8.828H52.966a8.829 8.829 0 00-8.828 8.828v194.207a8.827 8.827 0 008.828 8.827zm8.827-194.207h8.828a8.829 8.829 0 010 17.656h-8.828a8.829 8.829 0 010-17.656zm0 26.483h8.828a8.829 8.829 0 010 17.656h-8.828a8.829 8.829 0 010-17.656zm0 26.483h8.828a8.829 8.829 0 010 17.656h-8.828a8.829 8.829 0 010-17.656zm0 26.483h8.828a8.829 8.829 0 010 17.656h-8.828a8.829 8.829 0 010-17.656zm0 26.482h8.828a8.829 8.829 0 010 17.656h-8.828a8.829 8.829 0 010-17.656zm-8.827 44.138a8.829 8.829 0 018.828-8.828h8.828a8.829 8.829 0 018.828 8.828v17.655a8.829 8.829 0 01-8.828 8.828h-8.828a8.829 8.829 0 01-8.828-8.828v-17.655z" fill="#bec8dc"/><path d="M61.793 119.172h8.828a8.829 8.829 0 000-17.656h-8.828a8.829 8.829 0 000 17.656z" fill="#e4eaf6"/><path d="M61.793 145.655h8.828a8.829 8.829 0 000-17.656h-8.828a8.829 8.829 0 000 17.656z" fill="#96a5b9"/><g fill="#e4eaf6"><path d="M61.793 172.138h8.828a8.829 8.829 0 000-17.656h-8.828a8.829 8.829 0 000 17.656zM61.793 198.621h8.828a8.829 8.829 0 000-17.656h-8.828a8.829 8.829 0 000 17.656zM61.793 225.103h8.828a8.829 8.829 0 000-17.656h-8.828a8.829 8.829 0 000 17.656z"/></g><path d="M61.793 278.069h8.828a8.829 8.829 0 008.828-8.828v-17.655a8.829 8.829 0 00-8.828-8.828h-8.828a8.829 8.829 0 00-8.828 8.828v17.655a8.829 8.829 0 008.828 8.828z" fill="#96a5b9"/><g fill="#bec8dc"><path d="M467.862 92.69a8.829 8.829 0 00-8.828-8.828h-79.448a8.829 8.829 0 00-8.828 8.828v52.966h97.103V92.69zm-13.241 44.138H384a4.414 4.414 0 110-8.828H454.621a4.414 4.414 0 110 8.828zm0-17.656H384a4.414 4.414 0 110-8.828h70.622a4.414 4.414 0 11-.001 8.828zm0-17.655H384a4.414 4.414 0 110-8.828h70.622a4.414 4.414 0 11-.001 8.828zM379.586 295.724h79.448a8.829 8.829 0 008.828-8.828v-79.448h-97.103v79.448a8.827 8.827 0 008.827 8.828zm39.724-79.448h35.31a4.414 4.414 0 110 8.828h-35.31a4.414 4.414 0 110-8.828zm0 17.655h35.31a4.414 4.414 0 110 8.828h-35.31a4.414 4.414 0 110-8.828zm0 17.655h35.31a4.414 4.414 0 110 8.828h-35.31a4.414 4.414 0 110-8.828zm0 17.655h35.31a4.414 4.414 0 110 8.828h-35.31a4.414 4.414 0 110-8.828zm-17.655-52.965a4.414 4.414 0 110 8.828 4.414 4.414 0 110-8.828zm0 17.655a4.414 4.414 0 110 8.828 4.414 4.414 0 110-8.828zm0 17.655a4.414 4.414 0 110 8.828 4.414 4.414 0 110-8.828zm0 17.655a4.414 4.414 0 110 8.828 4.414 4.414 0 110-8.828zM384 216.276a4.414 4.414 0 110 8.828 4.414 4.414 0 110-8.828zm0 17.655a4.414 4.414 0 110 8.828 4.414 4.414 0 110-8.828zm0 17.655a4.414 4.414 0 110 8.828 4.414 4.414 0 110-8.828zm0 17.655a4.414 4.414 0 110 8.828 4.414 4.414 0 110-8.828z"/></g><g fill="#96a5b9"><path d="M467.862 145.655h-97.103v61.793h97.103v-61.793zm-75.034 52.966H384a4.414 4.414 0 110-8.828h8.828a4.414 4.414 0 110 8.828zm0-17.655H384a4.414 4.414 0 110-8.828h8.828a4.414 4.414 0 110 8.828zm0-17.656H384a4.414 4.414 0 110-8.828h8.828a4.414 4.414 0 110 8.828zm61.793 35.311h-44.138a4.414 4.414 0 110-8.828h44.138a4.414 4.414 0 110 8.828zm0-17.655h-44.138a4.414 4.414 0 110-8.828h44.138a4.414 4.414 0 110 8.828zm0-17.656h-44.138a4.414 4.414 0 110-8.828h44.138a4.414 4.414 0 110 8.828zM454.621 92.69h-52.966a4.414 4.414 0 110 8.828h52.966a4.414 4.414 0 100-8.828zM388.414 97.103a4.414 4.414 0 014.414-4.414H384a4.414 4.414 0 100 8.828h8.828a4.414 4.414 0 01-4.414-4.414zM454.621 128h-35.31a4.414 4.414 0 110 8.828h35.31a4.414 4.414 0 100-8.828zM406.069 132.414a4.414 4.414 0 014.414-4.414H384a4.414 4.414 0 100 8.828h26.483a4.414 4.414 0 01-4.414-4.414z"/></g><path d="M454.621 154.483h-44.138a4.414 4.414 0 100 8.828h44.138a4.414 4.414 0 100-8.828z" fill="#bec8dc"/><g fill="#96a5b9"><path d="M432.552 114.759a4.414 4.414 0 014.414-4.414H384a4.414 4.414 0 100 8.828h52.966a4.415 4.415 0 01-4.414-4.414zM454.621 110.345h-8.828a4.414 4.414 0 110 8.828h8.828a4.414 4.414 0 100-8.828z"/></g><g fill="#e4eaf6"><path d="M406.069 97.103a4.414 4.414 0 00-4.414-4.414h-8.828a4.414 4.414 0 100 8.828h8.828a4.414 4.414 0 004.414-4.414zM423.724 132.414A4.414 4.414 0 00419.31 128h-8.828a4.414 4.414 0 100 8.828h8.828a4.414 4.414 0 004.414-4.414zM392.828 154.483H384a4.414 4.414 0 100 8.828h8.828a4.414 4.414 0 100-8.828z"/></g><path d="M454.621 172.138h-44.138a4.414 4.414 0 100 8.828h44.138a4.414 4.414 0 100-8.828z" fill="#bec8dc"/><path d="M392.828 172.138H384a4.414 4.414 0 100 8.828h8.828a4.414 4.414 0 100-8.828z" fill="#e4eaf6"/><path d="M454.621 189.793h-44.138a4.414 4.414 0 100 8.828h44.138a4.414 4.414 0 100-8.828z" fill="#bec8dc"/><g fill="#e4eaf6"><path d="M392.828 189.793H384a4.414 4.414 0 100 8.828h8.828a4.414 4.414 0 100-8.828zM384 242.759a4.414 4.414 0 100-8.828 4.414 4.414 0 100 8.828zM384 225.103a4.414 4.414 0 100-8.828 4.414 4.414 0 100 8.828zM384 278.069a4.414 4.414 0 100-8.828 4.414 4.414 0 100 8.828zM384 260.414a4.414 4.414 0 100-8.828 4.414 4.414 0 100 8.828z"/></g><g fill="#96a5b9"><path d="M401.655 242.759a4.414 4.414 0 100-8.828 4.414 4.414 0 100 8.828zM401.655 225.103a4.414 4.414 0 100-8.828 4.414 4.414 0 100 8.828zM401.655 278.069a4.414 4.414 0 100-8.828 4.414 4.414 0 100 8.828zM401.655 260.414a4.414 4.414 0 100-8.828 4.414 4.414 0 100 8.828zM419.31 242.759h35.31a4.414 4.414 0 100-8.828h-35.31a4.414 4.414 0 100 8.828zM419.31 225.103h35.31a4.414 4.414 0 100-8.828h-35.31a4.414 4.414 0 100 8.828zM419.31 278.069h35.31a4.414 4.414 0 100-8.828h-35.31a4.414 4.414 0 100 8.828zM419.31 260.414h35.31a4.414 4.414 0 100-8.828h-35.31a4.414 4.414 0 100 8.828z"/></g><path d="M450.207 114.759a4.414 4.414 0 00-4.414-4.414h-8.828a4.414 4.414 0 100 8.828h8.828a4.415 4.415 0 004.414-4.414z" fill="#e4eaf6"/><path d="M132.413 198.621h66.207v-17.655h-57.38v-79.448h79.448v57.379a4.411 4.411 0 014.414 4.414 4.411 4.411 0 01-4.414 4.414v13.241h-13.241v17.655h22.069c.126 0 .248-.013.373-.019l.07-5.305c.04-3.042 3.641-4.622 5.907-2.593l2.041 1.828a8.827 8.827 0 00.438-2.739v-22.069a4.411 4.411 0 01-4.414-4.414 4.411 4.411 0 014.414-4.414V92.69a8.826 8.826 0 00-8.828-8.828h-97.103a8.826 8.826 0 00-8.828 8.828v97.103a8.824 8.824 0 008.827 8.828z" fill="#ff6469"/><g fill="#96a5b9"><path d="M203.033 238.345a4.411 4.411 0 004.414-4.414v-17.655c0-2.44-1.974-4.414-4.414-4.414s-4.414 1.974-4.414 4.414v17.655a4.412 4.412 0 004.414 4.414zM308.964 291.31h17.655c2.44 0 4.414-1.974 4.414-4.414s-1.974-4.414-4.414-4.414h-17.655c-2.44 0-4.414 1.974-4.414 4.414s1.975 4.414 4.414 4.414zM326.62 247.172a4.411 4.411 0 00-4.414 4.414v17.655c0 2.44 1.974 4.414 4.414 4.414s4.414-1.974 4.414-4.414v-17.655a4.412 4.412 0 00-4.414-4.414zM308.964 167.724h17.655a4.411 4.411 0 004.414-4.414 4.411 4.411 0 00-4.414-4.414h-17.655a4.411 4.411 0 00-4.414 4.414 4.412 4.412 0 004.414 4.414zM326.62 176.552a4.411 4.411 0 00-4.414 4.414v17.655c0 2.44 1.974 4.414 4.414 4.414s4.414-1.974 4.414-4.414v-17.655a4.412 4.412 0 00-4.414-4.414zM255.999 282.483h-17.655c-2.44 0-4.414 1.974-4.414 4.414s1.974 4.414 4.414 4.414h17.655c2.44 0 4.414-1.974 4.414-4.414s-1.974-4.414-4.414-4.414zM203.033 176.552a4.411 4.411 0 00-4.414 4.414v17.655c0 2.44 1.974 4.414 4.414 4.414s4.414-1.974 4.414-4.414v-17.655a4.411 4.411 0 00-4.414-4.414zM220.689 282.483h-17.655c-2.44 0-4.414 1.974-4.414 4.414s1.974 4.414 4.414 4.414h17.655c2.44 0 4.414-1.974 4.414-4.414s-1.975-4.414-4.414-4.414zM198.62 269.241c0 2.44 1.974 4.414 4.414 4.414s4.414-1.974 4.414-4.414v-17.655c0-2.44-1.974-4.414-4.414-4.414s-4.414 1.974-4.414 4.414v17.655zM326.62 211.862a4.411 4.411 0 00-4.414 4.414v17.655c0 2.44 1.974 4.414 4.414 4.414s4.414-1.974 4.414-4.414v-17.655a4.412 4.412 0 00-4.414-4.414zM273.654 167.724h17.655a4.411 4.411 0 004.414-4.414 4.411 4.411 0 00-4.414-4.414h-17.655a4.411 4.411 0 00-4.414 4.414 4.411 4.411 0 004.414 4.414zM198.62 163.31a4.411 4.411 0 004.414 4.414h17.655a4.411 4.411 0 004.414-4.414 4.411 4.411 0 00-4.414-4.414h-17.655a4.412 4.412 0 00-4.414 4.414zM273.654 291.31h17.655c2.44 0 4.414-1.974 4.414-4.414s-1.974-4.414-4.414-4.414h-17.655c-2.44 0-4.414 1.974-4.414 4.414s1.974 4.414 4.414 4.414zM233.93 163.31a4.411 4.411 0 004.414 4.414h17.655a4.411 4.411 0 004.414-4.414 4.411 4.411 0 00-4.414-4.414h-17.655a4.412 4.412 0 00-4.414 4.414z"/></g><path d="M229.958 193.297l-.07 5.305-.371 28.534c-.033 2.577 2.607 4.327 4.967 3.29l8.781-3.854 7.841 17.859a4.414 4.414 0 005.818 2.267 4.423 4.423 0 002.268-5.818l-7.84-17.857 8.778-3.853c2.359-1.036 2.859-4.163.94-5.884l-23.165-20.754-2.041-1.828c-2.265-2.03-5.867-.449-5.906 2.593z" fill="#464655"/></g><g viewBox="0 0 512 512" id="pencil" xmlns="http://www.w3.org/2000/svg"><path d="M494.345 79.448h-65.758c-.375.46-.778.906-1.207 1.335l-25.128 25.128-.019.02h83.284v247.172H26.483V105.931h225.303l26.483-26.483H17.655C7.904 79.448 0 87.352 0 97.103v282.483h512V97.103c0-9.751-7.905-17.655-17.655-17.655z" fill="#464655"/><path d="M168.948 297.242l-39.194 16.798a8.278 8.278 0 01-3.8.678c-3.849-.244-7.055-3.27-7.633-7.034a8.152 8.152 0 01.579-4.495l11.39-26.577 36.888-86.072 84.608-84.608H26.483v247.172h459.034V105.931h-83.284l-159.83 159.83-73.455 31.481z" fill="#fff"/><path d="M0 414.897c0 9.751 7.904 17.655 17.655 17.655h476.689c9.75 0 17.655-7.904 17.655-17.655v-35.31H0v35.31zm256-22.069c7.313 0 13.241 5.929 13.241 13.241S263.313 419.31 256 419.31s-13.241-5.929-13.241-13.241 5.928-13.241 13.241-13.241z" fill="#bec8dc"/><path fill="#afbbd0" d="M177.655 494.345h156.69l-5.517-44.138H183.172z"/><path d="M176.552 494.345a8.829 8.829 0 000 17.656h158.897a8.829 8.829 0 000-17.656H176.552z" fill="#bec8dc"/><g fill="#96a5b9"><path d="M183.172 450.207h145.656l-2.207-17.655H185.379z"/><circle cx="256" cy="406.069" r="13.241"/></g><path fill="#d75055" d="M167.179 190.538l37.612 37.612L364.641 68.3l-18.806-18.806-18.806-18.806-48.76 48.76-26.483 26.483z"/><path fill="#ff6469" d="M364.641 68.299v.001l-159.85 159.85 37.612 37.611 159.83-159.83.02-.02z"/><g fill="#fff0be"><path d="M327.029 30.688l18.806 18.806zM402.253 105.911l25.128-25.128c.429-.429.831-.875 1.207-1.335 5.661-6.934 5.259-17.167-1.207-23.633l-25.128-25.128L364.641 68.3l37.612 37.611zM118.321 307.682c.577 3.765 3.784 6.792 7.633 7.034-3.85-.242-7.056-3.268-7.633-7.034zM176.583 293.971l-7.635 3.271 73.455-31.481-37.612-37.611-47.014 47.015z"/></g><path fill="#ffdc9b" d="M130.291 276.611l8.679-20.252 18.807 18.806 47.014-47.015-37.612-37.612-36.888 86.072z"/><path d="M157.777 275.165l-18.806-18.806-8.68 20.253-11.39 26.577a8.135 8.135 0 00-.579 4.495c.577 3.765 3.784 6.792 7.633 7.034a8.278 8.278 0 003.8-.678l39.194-16.798 7.634-3.272-18.806-18.805z" fill="#d75055"/><path d="M364.641 68.3l37.612-37.612-25.791-25.792c-6.529-6.528-17.113-6.528-23.642 0l-25.791 25.792 18.806 18.806L364.641 68.3z" fill="#ffdc9b"/></g></svg>